<svg width="200" height="80" viewBox="0 0 200 80" fill="none" xmlns="http://www.w3.org/2000/svg">
<rect width="100%" height="100%" fill="transparent"/>
<g transform="translate(20 20)">
<!-- Yellow circle -->
<circle cx="15" cy="15" r="8" fill="#FFD700"/>
<!-- Purple graphic element with petal-like shapes -->
<g transform="translate(15 15)">
<path d="M0,-12 Q-8,-8 -8,0 Q-8,8 0,8 Q8,8 8,0 Q8,-8 0,-12 Z" fill="#8B5CF6" opacity="0.8"/>
<path d="M0,-12 Q8,-8 8,0 Q8,8 0,8 Q-8,8 -8,0 Q-8,-8 0,-12 Z" fill="#7C3AED" opacity="0.9"/>
<path d="M-12,0 Q-8,8 0,8 Q8,8 12,0 Q8,-8 0,-8 Q-8,-8 -12,0 Z" fill="#6D28D9" opacity="0.7"/>
<path d="M12,0 Q8,-8 0,-8 Q-8,-8 -12,0 Q-8,8 0,8 Q8,8 12,0 Z" fill="#5B21B6" opacity="0.8"/>
</g>
<!-- IYG text -->
<text x="40" y="20" font-family="Arial, sans-serif" font-size="16" font-weight="bold" fill="#6D28D9">IYG</text>
</g>
</svg>
