<svg width="200" height="80" viewBox="0 0 200 80" fill="none" xmlns="http://www.w3.org/2000/svg">
<rect width="100%" height="100%" fill="transparent"/>
<g transform="translate(20 20)">
<!-- Yellow circle -->
<circle cx="20" cy="20" r="12" fill="#FFD700"/>
<!-- Purple starburst/petal shapes -->
<g transform="translate(20 20)">
<!-- Main starburst pattern -->
<path d="M0,-18 Q-6,-12 -12,-6 Q-18,0 -12,6 Q-6,12 0,18 Q6,12 12,6 Q18,0 12,-6 Q6,-12 0,-18 Z" fill="#8B5CF6" opacity="0.9"/>
<path d="M0,-18 Q6,-12 12,-6 Q18,0 12,6 Q6,12 0,18 Q-6,12 -12,6 Q-18,0 -12,-6 Q-6,-12 0,-18 Z" fill="#7C3AED" opacity="0.8"/>
<path d="M-18,0 Q-12,6 -6,12 Q0,18 6,12 Q12,6 18,0 Q12,-6 6,-12 Q0,-18 -6,-12 Q-12,-6 -18,0 Z" fill="#6D28D9" opacity="0.7"/>
<path d="M18,0 Q12,-6 6,-12 Q0,-18 -6,-12 Q-12,-6 -18,0 Q-12,6 -6,12 Q0,18 6,12 Q12,6 18,0 Z" fill="#5B21B6" opacity="0.8"/>
<!-- Additional smaller petals for more detail -->
<path d="M-13,-13 Q-9,-9 -5,-5 Q-1,-1 3,3 Q7,7 11,11 Q15,15 19,19 Q15,15 11,11 Q7,7 3,3 Q-1,-1 -5,-5 Q-9,-9 -13,-13 Z" fill="#8B5CF6" opacity="0.6"/>
<path d="M13,-13 Q9,-9 5,-5 Q1,-1 -3,3 Q-7,7 -11,11 Q-15,15 -19,19 Q-15,15 -11,11 Q-7,7 -3,3 Q1,-1 5,-5 Q9,-9 13,-13 Z" fill="#7C3AED" opacity="0.6"/>
</g>
<!-- IYG text -->
<text x="50" y="25" font-family="Arial, sans-serif" font-size="18" font-weight="bold" fill="#6D28D9">IYG</text>
</g>
</svg>