<?xml version="1.0" encoding="UTF-8"?>
<svg id="Layer_1" data-name="Layer 1" xmlns="http://www.w3.org/2000/svg" width="182" height="46.48" viewBox="0 0 182 46.48">
  <g>
    <path d="M0,.32H7.36V14.08h6.18v6.5H0V.32Z" fill="#fff"/>
    <path d="M15.45,.32h13.63V5.86h-6.21v1.94h5.67v5.27h-5.67v1.99h6.42v5.54H15.45V.32Z" fill="#fff"/>
    <path d="M38.3,20.59h-7.79L37.54,.32h8.14l7.23,20.26h-7.79l-.67-2.53h-5.56l-.59,2.53Zm4.86-7.34l-.86-3.57c-.22-.86-.35-1.75-.48-2.61h-.27l-1.34,6.18h2.96Z" fill="#fff"/>
    <path d="M54.5,.32h7.5c6.8,0,12.01,2.98,12.01,10.43,0,6.02-4.25,9.84-10.19,9.84h-9.33V.32Zm7.36,14.19h.46c2.45,0,4.33-1.13,4.33-3.79,0-2.85-1.64-4.06-4.33-4.06h-.46v7.85Z" fill="#fff"/>
    <path d="M76.57,.32h13.63V5.86h-6.21v1.94h5.67v5.27h-5.67v1.99h6.42v5.54h-13.84V.32Z" fill="#fff"/>
    <path d="M93.45,.32h8.9c4.57,0,8.44,1.94,8.44,7.04,0,3.06-1.18,4.35-3.92,5.27v.16c.38,.3,.83,.62,1.24,1.21l4.41,6.58h-8.49l-3.23-6.5h-.13v6.5h-7.2V.32Zm7.2,8.98h.51c1.21,0,2.42-.19,2.42-1.69s-1.1-1.75-2.37-1.75h-.56v3.44Z" fill="#fff"/>
    <path d="M115,13.33l.38,.3c1.32,1.02,2.9,1.85,4.6,1.85,.73,0,1.88-.3,1.88-1.21s-.97-.99-1.64-1.13l-1.48-.27c-2.88-.51-5.29-2.2-5.29-5.38,0-4.81,4.38-7.5,8.79-7.5,2.31,0,4.43,.56,6.42,1.77l-1.99,5.19c-1.26-.86-2.69-1.53-4.27-1.53-.65,0-1.59,.24-1.59,1.08,0,.75,.91,.86,1.48,.99l1.67,.38c3.12,.7,5.38,2.37,5.38,5.81,0,4.84-4.41,7.23-8.79,7.23-2.55,0-5.51-.7-7.79-1.85l2.26-5.72Z" fill="#fff"/>
    <path d="M131.61,.32h7.1V7.15h4.52V.32h7.1V20.59h-7.1v-7.04h-4.52v7.04h-7.1V.32Z" fill="#fff"/>
    <path d="M153.67,.32h7.36V20.59h-7.36V.32Z" fill="#fff"/>
    <path d="M164.45,.32h9.33c4.73,0,8.22,2.42,8.22,7.44,0,4.14-2.58,6.72-6.69,6.72h-3.76v6.1h-7.1V.32Zm7.1,9.06h.73c1.29,0,2.69-.22,2.69-1.85s-1.51-1.67-2.71-1.67h-.7v3.52Z" fill="#fff"/>
  </g>
  <g>
    <path d="M2.86,45.62H.25V24.69H2.86v20.94Z" fill="#fff"/>
    <path d="M6.52,23.69l15.72,16.47v-15.47h2.61v21.8L9.13,30.02v15.6h-2.61V23.69Z" fill="#fff"/>
    <path d="M28.34,24.69h4.33c6.41,0,11.74,3.39,11.74,10.36s-5.22,10.58-11.83,10.58h-4.25V24.69Zm2.61,18.55h.92c5.33,0,9.94-2,9.94-8.08s-4.61-8.08-9.94-8.08h-.92v16.16Z" fill="#fff"/>
    <path d="M49.56,45.62h-2.61V24.69h2.61v20.94Z" fill="#fff"/>
    <path d="M56.44,40.38l-2.39,5.25h-2.8l10-21.82,10,21.82h-2.8l-2.39-5.25h-9.61Zm4.8-10.86l-3.72,8.47h7.44l-3.72-8.47Z" fill="#fff"/>
    <path d="M72.74,23.69l15.72,16.47v-15.47h2.61v21.8l-15.72-16.47v15.6h-2.61V23.69Z" fill="#fff"/>
    <path d="M97.75,40.38l-2.39,5.25h-2.8l10-21.82,10,21.82h-2.8l-2.39-5.25h-9.61Zm4.8-10.86l-3.72,8.47h7.44l-3.72-8.47Z" fill="#fff"/>
    <path d="M116.91,45.62h-2.61V24.69h3c6.44,0,8.44,2.22,8.44,6.05,0,4.41-3.36,6.11-7.33,6.11h-1.5v8.77Zm0-11.11h.83c2.67,0,5.55-.5,5.55-3.83s-3.11-3.67-5.69-3.67h-.69v7.5Z" fill="#fff"/>
    <path d="M148.5,35.16c0,6.22-4.91,10.91-10.97,10.91s-10.97-4.69-10.97-10.91,4.97-10.91,10.97-10.91,10.97,4.91,10.97,10.91Zm-2.61,0c0-4.61-3.44-8.47-8.36-8.47s-8.36,3.86-8.36,8.47,3.83,8.47,8.36,8.47,8.36-3.69,8.36-8.47Z" fill="#fff"/>
    <path d="M153.64,43.24h6.36v2.39h-8.97V24.69h2.61v18.55Z" fill="#fff"/>
    <path d="M164.24,45.62h-2.61V24.69h2.61v20.94Z" fill="#fff"/>
    <path d="M177.46,28.66c-.78-1.31-1.78-1.97-3.36-1.97-1.67,0-3.5,1.14-3.5,2.97,0,1.64,1.61,2.5,2.92,3l1.5,.58c2.97,1.17,5.19,2.8,5.19,6.3,0,3.8-2.94,6.52-6.69,6.52-3.39,0-6.03-2.5-6.47-5.86l2.64-.56c-.03,2.3,1.8,3.97,4.05,3.97s3.86-1.89,3.86-4.08-1.8-3.22-3.61-3.97l-1.44-.61c-2.39-1.03-4.55-2.39-4.55-5.3,0-3.39,3-5.41,6.16-5.41,2.33,0,4.25,1.14,5.39,3.17l-2.08,1.25Z" fill="#fff"/>
  </g>
</svg>