<?xml version="1.0" encoding="UTF-8"?>
<svg id="Art" xmlns="http://www.w3.org/2000/svg" width="923.895" height="268.098" viewBox="0 0 923.895 268.098">
  <path d="M0,113.365c.422-22.136.636-40.673.636-55.608S.422,24.289,0,2.149h47.822c10.804,0,18.931,2.304,24.388,6.912,5.454,4.607,8.182,11.255,8.182,19.939,0,5.72-2.014,10.486-6.038,14.299-4.026,3.813-9.798,6.514-17.318,8.103v.159c8.579,1.378,15.304,4.528,20.178,9.454,4.871,4.925,7.309,11.625,7.309,20.098,0,6.25-1.378,11.784-4.131,16.602-2.756,4.821-6.991,8.634-12.711,11.44-5.719,2.808-12.975,4.21-21.766,4.21H0ZM56.72,44.491c3.178-2.594,4.766-6.328,4.766-11.2,0-4.343-1.351-7.706-4.052-10.089-2.7-2.383-6.858-3.574-12.472-3.574h-23.673l-.159,28.757h22.243c5.72,0,10.168-1.296,13.346-3.893ZM55.051,93.902c3.019-1.323,5.295-3.098,6.832-5.323,1.535-2.224,2.304-4.766,2.304-7.626,0-10.273-7.097-15.411-21.289-15.411h-21.767l.159,30.346h22.561c4.449,0,8.182-.661,11.2-1.986Z" style="fill: #d1001a;"/>
  <path d="M148.148,110.187c-6.355-3.389-11.28-8.262-14.775-14.617-3.495-6.355-5.244-13.823-5.244-22.402s1.748-16.047,5.244-22.401c3.495-6.355,8.42-11.226,14.775-14.617,6.355-3.388,13.609-5.084,21.767-5.084s15.411,1.696,21.767,5.084c6.355,3.391,11.28,8.262,14.775,14.617,3.495,6.355,5.243,13.822,5.243,22.401s-1.748,16.047-5.243,22.402c-3.495,6.355-8.421,11.228-14.775,14.617-6.355,3.388-13.612,5.084-21.767,5.084s-15.411-1.696-21.767-5.084ZM180.718,97.159c3.178-2.011,5.692-5.058,7.547-9.136,1.852-4.077,2.78-9.029,2.78-14.856s-.928-10.749-2.78-14.775c-1.855-4.024-4.369-7.07-7.547-9.136-3.177-2.065-6.779-3.098-10.803-3.098-4.131,0-7.785,1.033-10.963,3.098-3.178,2.065-5.668,5.112-7.467,9.136-1.803,4.026-2.701,8.952-2.701,14.775s.898,10.779,2.701,14.856c1.799,4.078,4.289,7.125,7.467,9.136,3.177,2.013,6.832,3.018,10.963,3.018,4.024,0,7.626-1.005,10.803-3.018Z" style="fill: #d1001a;"/>
  <path d="M239.735,110.187c-6.355-3.389-11.28-8.262-14.775-14.617-3.495-6.355-5.244-13.823-5.244-22.402s1.748-16.047,5.244-22.401c3.495-6.355,8.42-11.226,14.775-14.617,6.355-3.388,13.609-5.084,21.767-5.084s15.411,1.696,21.767,5.084c6.355,3.391,11.28,8.262,14.775,14.617,3.495,6.355,5.243,13.822,5.243,22.401s-1.748,16.047-5.243,22.402c-3.495,6.355-8.421,11.228-14.775,14.617-6.355,3.388-13.612,5.084-21.767,5.084s-15.411-1.696-21.767-5.084ZM272.304,97.159c3.178-2.011,5.692-5.058,7.547-9.136,1.852-4.077,2.78-9.029,2.78-14.856s-.928-10.749-2.78-14.775c-1.855-4.024-4.369-7.07-7.547-9.136-3.177-2.065-6.779-3.098-10.803-3.098-4.131,0-7.785,1.033-10.963,3.098-3.178,2.065-5.668,5.112-7.467,9.136-1.803,4.026-2.701,8.952-2.701,14.775s.898,10.779,2.701,14.856c1.799,4.078,4.289,7.125,7.467,9.136,3.177,2.013,6.832,3.018,10.963,3.018,4.024,0,7.626-1.005,10.803-3.018Z" style="fill: #d1001a;"/>
  <path d="M329.072,110.425c-5.349-3.229-9.64-7.995-12.869-14.298-3.232-6.301-4.846-13.955-4.846-22.959s1.614-16.655,4.846-22.958c3.229-6.3,7.519-11.067,12.869-14.299,5.348-3.23,11.254-4.846,17.715-4.846,6.142,0,11.519,1.43,16.126,4.29,4.608,2.86,8.235,7.149,10.883,12.869v-12.234l-.318-35.991h20.972l-.318,35.991v37.178c0,10.486.159,21.29.476,32.411l.159,7.785h-16.524l-2.542-19.066h-.159c-2.331,6.673-6.013,11.837-11.042,15.491-5.032,3.654-10.937,5.481-17.715,5.481-6.461,0-12.367-1.617-17.715-4.846ZM365.059,97.397c3.282-2.17,5.851-5.347,7.705-9.533,1.852-4.183,2.78-9.135,2.78-14.855,0-5.613-.928-10.486-2.78-14.617-1.854-4.131-4.424-7.281-7.705-9.454-3.285-2.17-7.098-3.257-11.44-3.257-3.92,0-7.522,1.112-10.803,3.337-3.285,2.224-5.906,5.401-7.864,9.532-1.962,4.132-2.94,8.952-2.94,14.458,0,5.616.978,10.513,2.94,14.696,1.959,4.185,4.58,7.387,7.864,9.612,3.282,2.225,6.884,3.337,10.803,3.337,4.342,0,8.155-1.085,11.44-3.257Z" style="fill: #d1001a;"/>
  <path d="M457.342,108.122c-8.686-4.766-15.359-11.44-20.018-20.019-4.662-8.579-6.991-18.43-6.991-29.552,0-11.439,2.674-21.58,8.024-30.425,5.347-8.842,12.655-15.701,21.925-20.575,9.268-4.871,19.462-7.308,30.584-7.308,5.506,0,10.987.742,16.444,2.224,5.454,1.485,10.351,3.654,14.695,6.514v25.459c-5.537-6.288-11.755-10.549-16.573-12.511-4.821-1.959-9.641-3.573-15.043-3.573-6.78,0-13.107,1.378-18.986,4.131-5.878,2.755-10.644,7.15-14.298,13.186-3.654,6.038-5.481,13.664-5.481,22.879,0,8.262,1.668,15.228,5.004,20.893,3.336,5.667,7.706,9.93,13.108,12.789,5.402,2.86,11.28,4.29,17.636,4.29,4.448,0,8.499-.45,12.153-1.351,3.655-.899,7.397-2.617,11.065-4.993,3.761-2.435,9.169-7.414,12.371-12.125v25.3c-4.663,3.92-10.01,6.886-16.048,8.897-6.038,2.01-12.392,3.019-19.066,3.019-11.652,0-21.82-2.383-30.504-7.15Z" style="fill: #d1001a;"/>
  <path d="M549.441,110.425c-5.35-3.229-9.64-7.995-12.869-14.298-3.232-6.301-4.846-13.955-4.846-22.959s1.614-16.655,4.846-22.958c3.23-6.3,7.519-11.067,12.869-14.299,5.347-3.23,11.254-4.846,17.715-4.846,6.355,0,11.889,1.509,16.602,4.528,4.713,3.019,8.342,7.653,10.883,13.902l2.701-16.523h17.477l-.319,40.037v.318l.319,40.037h-15.887l-3.972-17.318c-2.543,6.355-6.196,11.149-10.963,14.378-4.766,3.23-10.382,4.846-16.842,4.846s-12.368-1.617-17.715-4.846ZM585.506,97.397c3.337-2.17,5.931-5.322,7.784-9.453,1.852-4.132,2.78-9.001,2.78-14.617,0-5.72-.928-10.67-2.78-14.856-1.854-4.183-4.448-7.361-7.784-9.533-3.337-2.17-7.176-3.257-11.519-3.257-3.919,0-7.547,1.112-10.883,3.337-3.337,2.224-5.984,5.429-7.943,9.612-1.962,4.185-2.94,9.083-2.94,14.696,0,5.509.979,10.327,2.94,14.458,1.959,4.131,4.606,7.308,7.943,9.533,3.337,2.225,6.964,3.337,10.883,3.337,4.343,0,8.182-1.085,11.519-3.257Z" style="fill: #d1001a;"/>
  <path d="M631.898,73.168c0-10.485-.159-21.289-.476-32.411l-.159-7.784h18.111l2.224,16.841.16.159c2.753-6.141,6.275-10.828,10.565-14.061,4.289-3.23,9.664-4.846,16.127-4.846,8.365,0,14.801,2.251,19.303,6.753,4.501,4.503,6.753,11.097,6.753,19.78v15.57l.317,40.197h-20.971l.317-40.197v-12.71c0-5.084-1.271-8.818-3.814-11.201-2.541-2.383-6.036-3.574-10.485-3.574-5.402,0-9.691,1.668-12.869,5.004-3.177,3.337-4.766,7.864-4.766,13.584v8.897l.319,40.197h-20.972l.317-40.197Z" style="fill: #d1001a;"/>
  <path d="M734.52,110.107c-6.196-3.44-10.937-8.341-14.22-14.696-3.283-6.355-4.925-13.822-4.925-22.401,0-8.366,1.879-15.729,5.64-22.084,3.759-6.355,8.923-11.253,15.491-14.696,6.567-3.441,13.982-5.163,22.244-5.163,4.766,0,9.001.531,12.709,1.589,3.707,1.059,7.412,2.755,11.123,5.084v19.383c-4.344-3.388-8.237-5.799-11.677-7.229-3.443-1.43-7.019-2.145-10.725-2.145-4.344,0-8.368.953-12.075,2.86-3.709,1.907-6.647,4.766-8.818,8.579-2.172,3.814-3.257,8.476-3.257,13.981,0,5.191.954,9.692,2.861,13.505,1.905,3.813,4.527,6.753,7.864,8.818,3.337,2.065,7.175,3.098,11.519,3.098,4.236,0,8.313-.819,12.234-2.462,3.917-1.642,8.155-4.369,12.711-8.182v19.383c-7.522,5.298-16.365,7.945-26.533,7.945-8.58,0-15.968-1.723-22.164-5.164Z" style="fill: #d1001a;"/>
  <path d="M810.244,110.054c-6.196-3.282-10.937-7.996-14.22-14.14-3.283-6.142-4.925-13.505-4.925-22.084s1.773-16.126,5.323-22.64c3.547-6.514,8.42-11.544,14.616-15.093,6.196-3.548,13.054-5.323,20.576-5.323,7.094,0,13.159,1.298,18.191,3.892,5.03,2.597,8.842,6.355,11.44,11.28,2.594,4.926,3.893,10.779,3.893,17.557,0,2.437-.16,4.925-.477,7.467h-52.907v1.112c0,3.813.662,7.706,1.986,11.677,1.323,3.972,3.735,7.416,7.23,10.327,3.495,2.915,8.207,4.369,14.141,4.369,9.426,0,18.482-3.495,27.167-10.486v19.066c-4.661,2.756-9.293,4.766-13.901,6.038-4.608,1.271-9.929,1.907-15.967,1.907-8.58,0-15.968-1.644-22.164-4.926ZM845.437,61.595c.21-5.189-.901-9.426-3.337-12.71-2.437-3.282-6.093-4.925-10.963-4.925-4.766,0-8.739,1.457-11.917,4.369-3.177,2.915-5.349,7.336-6.513,13.266h32.729Z" style="fill: #d1001a;"/>
  <path d="M877.503,73.168c0-10.485-.159-21.289-.476-32.411l-.159-7.784h17.634l2.384,18.747.636.159c2.117-7.095,4.66-12.338,7.626-15.729,2.965-3.388,7.042-5.084,12.234-5.084,2.224,0,4.394.213,6.513.636v18.748c-3.812-1.376-7.362-2.065-10.644-2.065-5.402,0-9.323,1.564-11.757,4.686-2.439,3.126-3.655,8.078-3.655,14.856v5.243l.319,40.197h-20.972l.317-40.197Z" style="fill: #d1001a;"/>
  <path d="M97.823,104.927c-1.083-3.137-1.895-7.519-2.435-13.146-.542-5.624-.81-13.089-.81-22.395l.162-35.378-.339-31.859h21.097l-.31,31.859.162,34.404c0,8.657.378,15.798,1.135,21.422.757,5.627,1.839,10.223,3.247,13.794,1.404,3.57,3.246,6.924,5.518,9.737h-23.207c-1.732-2.487-3.139-5.299-4.219-8.438Z" style="fill: #d1001a;"/>
  <path d="M105.34,224.12c0-10.485-.159-21.289-.476-32.411l-.159-7.784h18.111l2.224,16.841.16.159c2.753-6.141,6.275-10.828,10.565-14.061,4.289-3.23,9.664-4.846,16.127-4.846,8.365,0,14.801,2.251,19.303,6.753,4.501,4.503,6.753,11.097,6.753,19.78v15.57l.317,40.197h-20.971l.317-40.197v-12.71c0-5.084-1.271-8.818-3.814-11.201-2.541-2.383-6.036-3.574-10.485-3.574-5.402,0-9.691,1.668-12.869,5.004-3.177,3.337-4.766,7.864-4.766,13.584v8.897l.319,40.197h-20.972l.317-40.197Z" style="fill: #d1001a;"/>
  <path d="M196.418,172.406c-2.172-2.17-3.257-4.898-3.257-8.182,0-2.01.501-3.866,1.509-5.561,1.006-1.693,2.384-3.044,4.132-4.052,1.747-1.005,3.678-1.51,5.798-1.51s4.052.505,5.8,1.51c1.747,1.008,3.122,2.358,4.131,4.052,1.004,1.695,1.509,3.55,1.509,5.561,0,3.284-1.088,6.013-3.257,8.182-2.172,2.172-4.901,3.257-8.182,3.257s-6.012-1.085-8.182-3.257ZM194.432,223.962l-.317-40.037h20.971l-.317,40.037.317,40.355h-20.971l.317-40.355Z" style="fill: #d1001a;"/>
  <path d="M242.723,260.027c-4.238-4.131-6.303-10.59-6.196-19.383l.317-44.963h-12.234v-1.589l31.141-32.888h.794v22.72h24.309v11.757h-24.309l.319,42.262c0,4.026.636,7.07,1.907,9.136,1.27,2.065,3.547,3.098,6.832,3.098,4.658,0,9.424-1.642,14.298-4.926v17c-3.39,1.378-6.434,2.383-9.135,3.019-2.701.636-5.853.953-9.454.953-8.156,0-14.353-2.065-18.588-6.197Z" style="fill: #d1001a;"/>
  <path d="M306.468,261.298c-6.196-3.282-10.937-7.996-14.22-14.14-3.283-6.142-4.925-13.505-4.925-22.084s1.773-16.126,5.323-22.64c3.547-6.514,8.42-11.544,14.616-15.093,6.196-3.548,13.054-5.323,20.576-5.323,7.094,0,13.159,1.298,18.191,3.892,5.03,2.597,8.842,6.355,11.44,11.28,2.594,4.926,3.893,10.779,3.893,17.557,0,2.437-.16,4.925-.477,7.467h-52.907v1.112c0,3.813.662,7.706,1.986,11.677,1.323,3.972,3.735,7.416,7.23,10.327,3.495,2.915,8.207,4.369,14.141,4.369,9.426,0,18.482-3.495,27.167-10.486v19.066c-4.661,2.756-9.293,4.766-13.901,6.038-4.608,1.271-9.929,1.907-15.967,1.907-8.58,0-15.968-1.644-22.164-4.926ZM341.66,212.84c.21-5.189-.901-9.426-3.337-12.71-2.437-3.282-6.093-4.925-10.963-4.925-4.766,0-8.739,1.457-11.917,4.369-3.177,2.915-5.349,7.336-6.513,13.266h32.729Z" style="fill: #d1001a;"/>
  <path d="M44.929,153.101s26.393,51.64,28.935,62.723c4.529,19.466-8.414,37.076-28.935,36.967-20.521.11-33.464-17.501-28.935-36.967,2.542-11.084,28.933-62.721,28.935-62.723H0v72.212c0,24.813,20.115,42.785,44.929,42.785h0c24.813,0,44.929-17.972,44.929-42.785v-72.212h-44.929Z" style="fill: #d1001a;"/>
  <path d="M387.021,261.377c-5.349-3.229-9.64-7.995-12.869-14.298-3.232-6.301-4.846-13.955-4.846-22.959s1.614-16.655,4.846-22.958c3.229-6.3,7.519-11.067,12.869-14.299,5.348-3.23,11.254-4.846,17.715-4.846,6.142,0,11.519,1.43,16.126,4.29,4.608,2.86,8.235,7.149,10.883,12.869v-12.234l-.318-35.991h20.972l-.318,35.991v37.178c0,10.486.159,21.29.476,32.411l.159,7.785h-16.524l-2.542-19.066h-.159c-2.331,6.673-6.013,11.837-11.042,15.491-5.032,3.654-10.937,5.481-17.715,5.481-6.461,0-12.367-1.617-17.715-4.846ZM423.007,248.349c3.282-2.17,5.851-5.347,7.705-9.533,1.852-4.183,2.78-9.135,2.78-14.855,0-5.613-.928-10.486-2.78-14.617-1.854-4.131-4.424-7.281-7.705-9.454-3.285-2.17-7.098-3.257-11.44-3.257-3.92,0-7.522,1.112-10.803,3.337-3.285,2.224-5.906,5.401-7.864,9.532-1.962,4.132-2.94,8.952-2.94,14.458,0,5.616.978,10.513,2.94,14.696,1.959,4.185,4.58,7.387,7.864,9.612,3.282,2.225,6.884,3.337,10.803,3.337,4.342,0,8.155-1.085,11.44-3.257Z" style="fill: #d1001a;"/>
</svg>